<svg width="666" height="673" viewBox="0 0 666 673" fill="none" xmlns="http://www.w3.org/2000/svg">
<path d="M147.914 69.2645L146.923 69.1679L143.062 71.8755L152.982 86.0239L153.973 86.1204L157.216 83.8469L157.463 82.8823L147.914 69.2645ZM151.316 67.8461L159.956 80.167L159.18 84.5797L154.346 87.9693L158.459 93.835L155.512 95.9018L139.122 72.5275L146.904 67.0711L151.316 67.8461ZM162.966 58.7885L159.657 60.83L159.384 61.7596L168.098 75.8836L169.051 76.0571L172.36 74.0155L172.633 73.086L163.919 58.9619L162.966 58.7885ZM175.33 70.5334L174.34 74.8246L168.886 78.1893L164.607 77.1494L156.687 64.3122L157.677 60.021L163.131 56.6563L167.41 57.6961L175.33 70.5334ZM193.534 64.1019L180.855 70.9291L180.036 69.4077L184.284 67.1206L184.483 66.2769L176.598 51.633L175.784 51.3356L172.107 53.3154L171.288 51.794L178.641 47.8342L187.653 64.5701L188.468 64.8676L192.715 62.5805L193.534 64.1019ZM175.008 40.1002L177.364 44.4744L173.306 46.6591L170.951 42.2849L175.008 40.1002ZM188.668 42.7061L196.83 38.9139L201.219 40.3283L208.894 56.8483L205.597 58.3804L197.603 41.1748L196.644 40.9057L192.694 42.7412L200.961 60.5344L197.664 62.0665L188.668 42.7061ZM212.043 34.3369L218.37 50.3783L219.311 50.7037L224.736 48.5639L225.37 50.1713L218.84 52.7471L214.71 51.0091L208.66 35.671L205.044 37.0976L204.41 35.4901L208.026 34.0635L205.979 28.8727L209.362 27.5386L211.409 32.7294L217.537 30.3122L218.171 31.9197L212.043 34.3369ZM250.883 21.7068L247.123 22.6951L246.592 23.5048L250.81 39.5558L251.671 39.9995L255.431 39.0113L255.963 38.2015L251.745 22.1506L250.883 21.7068ZM259.287 36.5462L257.089 40.3623L250.891 41.991L247.101 39.7488L243.267 25.1601L245.465 21.3441L251.663 19.7153L255.453 21.9576L259.287 36.5462ZM273.514 16.6745L267.513 17.8769L271.375 37.1498L267.846 37.8571L263.984 18.5842L259.677 19.4471L259.338 17.7528L263.644 16.8899L262.527 11.3128L264.904 7.60529L270.835 6.41701L271.174 8.11133L266.515 9.04498L265.901 9.82889L267.174 16.1826L273.175 14.9802L273.514 16.6745ZM313.192 12.2617L310.219 31.895L303.904 32.4027L298.049 13.479L297.815 11.4752L301.655 11.1666L301.817 13.1761L306.78 30.4379L307.533 30.3774L309.424 12.5646L309.263 10.5551L313.03 10.2522L313.192 12.2617ZM332.297 31.066L317.901 31.3826L317.863 29.6551L322.686 29.549L323.247 28.8885L322.882 12.2605L322.291 11.6253L318.116 11.7171L318.078 9.98956L326.428 9.80591L326.846 28.8093L327.436 29.4445L332.259 29.3384L332.297 31.066ZM326.709 1.26569L326.818 6.23249L322.211 6.33381L322.102 1.36701L326.709 1.26569ZM346.335 19.1824L346.575 12.4907L346.059 11.8237L342.282 11.688L341.719 12.3162L341.478 19.0079L346.335 19.1824ZM350.165 12.8358L349.872 21.0026L341.417 20.6988L341.123 28.9015L341.639 29.5685L349.014 29.8335L348.952 31.5604L340.498 31.2566L337.533 28.5564L338.113 12.4028L341.336 9.92494L347.128 10.1331L350.165 12.8358ZM371.055 12.0048L370.868 14.0121L366.058 32.9789L361.829 32.5837L361.556 24.2783L359.212 32.3392L355.52 31.9942L354.523 12.4848L354.71 10.4776L358.259 10.8091L358.071 12.8164L358.48 29.3421L361.34 18.0753L361.154 13.1044L361.341 11.0972L363.886 11.335L363.699 13.3422L363.965 29.4569L367.319 13.6805L367.507 11.6732L371.055 12.0048ZM400.155 33.7083L399.117 38.5297L394.049 37.4383L395.087 32.6169L400.155 33.7083ZM417.865 38.2153L416.55 42.9687L411.554 41.5866L412.869 36.8331L417.865 38.2153ZM435.289 43.7825L433.685 48.4464L428.783 46.7604L430.387 42.0965L435.289 43.7825ZM468.977 57.9416L466.838 62.3857L462.167 60.1375L464.306 55.6934L468.977 57.9416ZM485.136 66.4931L482.737 70.8023L478.208 68.2805L480.607 63.9714L485.136 66.4931ZM500.763 75.9677L498.119 80.1313L493.743 77.3527L496.387 73.189L500.763 75.9677ZM530.215 97.5981L527.104 101.425L523.082 98.1539L526.193 94.3274L530.215 97.5981ZM543.945 109.68L540.607 113.311L536.791 109.802L540.128 106.171L543.945 109.68ZM556.936 122.526L553.398 125.962L549.786 122.243L553.325 118.807L556.936 122.526ZM602.939 137.994L578.925 156.372L576.737 153.513L578.595 152.091L573.164 149.674L573.255 144.935L585.777 135.353L590.152 135.857L593.719 140.517L600.752 135.135L602.939 137.994ZM579.91 151.085L592.346 141.568L589.546 137.908L588.594 137.73L575.328 147.882L575.251 148.847L579.91 151.085ZM602.925 156.565L600.748 153.343L599.808 153.11L586.058 162.404L585.925 163.363L588.102 166.584L589.042 166.818L602.792 157.524L602.925 156.565ZM591.705 169.407L587.376 168.596L583.788 163.287L584.649 158.968L597.145 150.521L601.474 151.332L605.063 156.641L604.202 160.96L591.705 169.407ZM607.244 203.264L600.627 190.474L602.162 189.68L604.378 193.964L605.219 194.178L619.991 186.536L620.302 185.727L618.383 182.018L619.918 181.224L623.755 188.642L606.873 197.376L606.562 198.185L608.778 202.47L607.244 203.264ZM631.548 185.137L627.136 187.42L625.019 183.327L629.431 181.044L631.548 185.137ZM623.697 235.758L621.136 236.719L619.858 233.315L621.745 232.607L627.211 224.94L624.539 223.867L617.327 226.575L616.061 223.204L644.372 212.575L645.637 215.945L628.112 222.525L637.303 226.112L639.662 225.226L640.927 228.596L638.703 229.431L630.586 226.249L623.697 235.758ZM642.909 234.573L645.555 243.175L643.556 247.33L626.146 252.686L625.076 249.211L643.21 243.632L643.607 242.719L642.326 238.556L623.573 244.325L622.504 240.849L642.909 234.573ZM648.628 261.34L647.705 257.563L646.904 257.017L630.783 260.958L630.324 261.811L631.247 265.588L632.048 266.133L648.169 262.193L648.628 261.34ZM633.645 269.486L629.868 267.222L628.346 260.997L630.654 257.246L645.306 253.665L649.084 255.929L650.605 262.154L648.298 265.905L633.645 269.486ZM655.323 285.774L653.34 286.139L633.78 286.658L633.012 282.48L640.932 279.963L632.538 279.895L631.868 276.248L650.374 269.993L652.357 269.629L653.001 273.134L651.018 273.498L635.223 278.377L646.844 278.072L651.577 276.543L653.56 276.179L654.022 278.693L652.039 279.057L636.602 283.687L652.696 282.633L654.679 282.269L655.323 285.774ZM656.986 323.507L637.44 320.74L630.197 319.719L629.976 316.234L637.231 317.434L637.06 314.74L656.054 308.776L658.061 308.577L658.293 312.242L656.281 312.369L638.964 317.469L639.001 318.044L656.756 319.878L658.768 319.751L658.998 323.38L656.986 323.507ZM657.483 337.201L657.459 333.313L656.807 332.597L640.211 332.699L639.568 333.423L639.591 337.31L640.244 338.026L656.84 337.925L657.483 337.201ZM641.022 341.658L637.871 338.581L637.832 332.173L640.945 329.058L656.029 328.966L659.18 332.042L659.219 338.45L656.106 341.565L641.022 341.658ZM640.209 359.999L637.251 356.668L637.588 350.341L640.885 347.345L659.075 348.315L658.883 351.91L639.938 350.899L639.25 351.62L639.039 355.574L639.646 356.364L658.591 357.375L658.399 360.969L640.209 359.999ZM640.544 374.557L641.12 369.405L636.219 368.857L635.642 374.009L640.544 374.557ZM646.225 374.614L646.669 370.642L651.535 371.187L656.177 377.285L660.935 377.818L661.743 377.075L662.392 371.279L661.768 370.376L658.584 370.02L659.029 366.049L661.39 366.313L664.691 370.16L663.738 378.675L659.668 381.697L654.123 381.076L649.623 374.994L646.225 374.614ZM634.08 410.381L629.278 409.258L630.458 404.21L635.261 405.333L634.08 410.381ZM629.25 428.011L624.522 426.608L625.996 421.638L630.725 423.041L629.25 428.011ZM623.398 445.326L618.759 443.65L620.521 438.775L625.16 440.451L623.398 445.326ZM608.653 478.768L604.245 476.556L606.57 471.922L610.978 474.134L608.653 478.768ZM599.822 494.782L595.555 492.307L598.157 487.823L602.423 490.298L599.822 494.782ZM590.072 510.239L585.955 507.521L588.811 503.195L592.927 505.912L590.072 510.239ZM567.934 539.314L564.165 536.133L567.51 532.171L571.278 535.353L567.934 539.314ZM555.634 552.831L552.056 549.437L555.624 545.676L559.202 549.07L555.634 552.831ZM542.555 565.606L539.184 562.005L542.97 558.463L546.34 562.064L542.555 565.606ZM522.511 600.176L523.504 600.25L527.302 597.453L517.055 583.539L516.062 583.466L512.873 585.814L512.649 586.784L522.511 600.176ZM519.143 601.673L510.22 589.556L510.892 585.127L515.646 581.626L511.398 575.857L514.296 573.723L531.225 596.71L523.572 602.346L519.143 601.673ZM507.752 610.996L511.008 608.872L511.257 607.935L502.19 594.036L501.232 593.886L497.976 596.011L497.727 596.947L506.795 610.846L507.752 610.996ZM495.095 599.566L495.977 595.252L501.344 591.751L505.648 592.682L513.889 605.316L513.008 609.63L507.641 613.132L503.336 612.2L495.095 599.566ZM477.046 606.431L489.56 599.307L490.415 600.809L486.223 603.195L486.043 604.044L494.271 618.498L495.092 618.776L498.721 616.71L499.576 618.212L492.317 622.344L482.914 605.824L482.093 605.546L477.901 607.933L477.046 606.431ZM496.131 629.99L493.674 625.673L497.678 623.393L500.136 627.71L496.131 629.99ZM482.438 627.698L474.372 631.69L469.95 630.385L461.869 614.059L465.128 612.446L473.544 629.449L474.509 629.695L478.413 627.762L469.709 610.178L472.968 608.565L482.438 627.698ZM459.274 636.641L452.556 620.76L451.607 620.458L446.236 622.73L445.563 621.138L452.028 618.403L456.199 620.04L462.623 635.225L466.204 633.71L466.877 635.301L463.296 636.816L465.47 641.955L462.122 643.372L459.948 638.233L453.88 640.799L453.207 639.208L459.274 636.641ZM420.784 650.221L424.518 649.136L425.028 648.313L420.396 632.377L419.524 631.955L415.79 633.04L415.28 633.864L419.912 649.8L420.784 650.221ZM411.999 635.604L414.098 631.733L420.251 629.944L424.099 632.088L428.309 646.572L426.21 650.444L420.057 652.232L416.209 650.089L411.999 635.604ZM398.238 655.813L404.209 654.47L399.895 635.293L403.407 634.503L407.721 653.68L412.006 652.716L412.385 654.402L408.1 655.366L409.348 660.915L407.058 664.678L401.157 666.005L400.778 664.319L405.414 663.276L406.01 662.478L404.588 656.156L398.617 657.499L398.238 655.813ZM358.716 661.203L361.191 641.5L367.492 640.833L373.823 659.603L374.107 661.601L370.276 662.006L370.064 660.001L364.667 642.87L363.915 642.95L362.475 660.805L362.687 662.809L358.928 663.207L358.716 661.203ZM339.139 642.851L353.525 642.203L353.603 643.929L348.783 644.146L348.237 644.82L348.986 661.435L349.591 662.056L353.763 661.868L353.841 663.594L345.497 663.97L344.641 644.982L344.036 644.36L339.217 644.578L339.139 642.851ZM345.414 672.515L345.19 667.552L349.793 667.344L350.017 672.307L345.414 672.515ZM325.391 655.068L325.312 661.763L325.845 662.418L329.624 662.462L330.172 661.821L330.251 655.125L325.391 655.068ZM321.715 661.505L321.812 653.333L330.271 653.433L330.368 645.226L329.836 644.572L322.456 644.484L322.477 642.756L330.936 642.857L333.965 645.485L333.774 661.647L330.612 664.202L324.816 664.134L321.715 661.505ZM300.855 662.842L300.994 660.831L305.342 641.753L309.579 642.045L310.053 650.342L312.201 642.226L315.9 642.482L317.371 661.961L317.232 663.972L313.677 663.727L313.815 661.716L313.006 645.205L310.42 656.538L310.727 661.503L310.588 663.514L308.038 663.338L308.177 661.327L307.52 645.223L304.549 661.076L304.411 663.087L300.855 662.842ZM271.238 641.851L272.158 637.006L277.251 637.972L276.331 642.818L271.238 641.851ZM253.422 637.78L254.62 632.996L259.649 634.255L258.451 639.039L253.422 637.78ZM235.867 632.64L237.356 627.939L242.298 629.504L240.809 634.206L235.867 632.64ZM201.843 619.309L203.873 614.814L208.597 616.948L206.568 621.443L201.843 619.309ZM185.479 611.154L187.773 606.788L192.362 609.199L190.069 613.565L185.479 611.154ZM169.627 602.063L172.168 597.836L176.611 600.507L174.07 604.734L169.627 602.063ZM139.659 581.151L142.677 577.251L146.777 580.424L143.759 584.324L139.659 581.151ZM125.641 569.406L128.89 565.695L132.79 569.11L129.542 572.821L125.641 569.406ZM112.343 556.876L115.798 553.356L119.498 556.987L116.043 560.507L112.343 556.876ZM65.9789 542.524L89.543 523.572L91.7992 526.377L89.9758 527.844L95.4635 530.129L95.4871 534.869L83.2001 544.751L78.8137 544.352L75.136 539.779L68.2351 545.33L65.9789 542.524ZM88.6854 528.882L76.4826 538.696L79.3705 542.287L80.3267 542.442L93.3431 531.973L93.3968 531.006L88.6854 528.882ZM65.5449 523.962L67.7999 527.13L68.7453 527.34L82.2649 517.715L82.3752 516.753L80.1202 513.585L79.1747 513.375L65.6552 523L65.5449 523.962ZM76.45 510.851L80.7971 511.557L84.5136 516.777L83.7578 521.115L71.47 529.864L67.123 529.158L63.4064 523.938L64.1622 519.6L76.45 510.851ZM43.0743 486.555L61.9451 480.76L68.9359 478.608L70.6155 481.669L63.5382 483.663L64.8369 486.031L50.174 499.496L48.4412 500.528L46.6749 497.309L48.4424 496.339L61.954 484.368L61.6769 483.863L44.8233 489.743L43.0558 490.713L41.3069 487.525L43.0743 486.555ZM36.8134 474.286L38.4733 477.802L39.3666 478.177L54.3743 471.092L54.6529 470.164L52.9931 466.648L52.0997 466.274L37.0921 473.359L36.8134 474.286ZM49.8638 463.308L54.0178 464.771L56.7534 470.566L55.2429 474.703L41.6025 481.142L37.4486 479.679L34.7129 473.885L36.2234 469.748L49.8638 463.308ZM42.8457 446.35L46.9359 448.116L49.3076 453.991L47.5892 458.101L30.6976 464.92L29.35 461.582L46.9427 454.48L47.2606 453.536L45.7782 449.864L44.8944 449.406L27.3017 456.507L25.9541 453.169L42.8457 446.35ZM32.1592 410.611L34.8002 409.896L35.7499 413.406L33.8039 413.933L27.636 421.047L30.194 422.368L37.6306 420.356L38.5709 423.831L9.38061 431.73L8.44031 428.255L26.5105 423.365L17.7006 418.924L15.2681 419.582L14.3278 416.107L16.6213 415.487L24.3997 419.424L32.1592 410.611ZM12.9256 410.022L11.0852 401.212L13.4591 397.259L31.2902 393.534L32.0337 397.093L13.4626 400.973L12.9829 401.845L13.8736 406.109L33.079 402.097L33.8225 405.656L12.9256 410.022ZM9.72127 382.794L10.283 386.641L11.0283 387.26L27.4501 384.862L27.9873 384.056L27.4255 380.209L26.6803 379.59L10.2584 381.988L9.72127 382.794ZM25.4069 376.101L28.9534 378.712L29.8792 385.053L27.2274 388.569L12.3017 390.749L8.75521 388.138L7.82935 381.797L10.4812 378.281L25.4069 376.101ZM5.35934 357.846L7.36764 357.67L26.8899 358.994L27.261 363.226L19.1397 364.986L27.4905 365.843L27.8145 369.537L8.80164 374.023L6.79335 374.199L6.48202 370.649L8.49031 370.473L24.6737 367.102L13.0764 366.312L8.21986 367.389L6.21157 367.565L5.98829 365.019L7.99659 364.843L23.8013 361.686L7.67897 361.22L5.67067 361.397L5.35934 357.846ZM8.3097 320.086L26.4819 320.618L26.3756 324.253L7.41171 323.698L6.74293 324.398L6.68818 326.27L26.2998 326.843L26.2198 329.578L7.14794 329.02L6.59133 329.58L6.53658 331.451L26.1482 332.025L26.0419 335.66L4.70299 335.035L5.05778 322.909L8.3097 320.086ZM15.3264 306.24L8.65586 305.657L7.96328 306.138L7.63401 309.904L8.2325 310.498L14.903 311.082L15.3264 306.24ZM9.18464 302.089L17.3256 302.801L16.5886 311.229L24.7654 311.944L25.458 311.463L26.1009 304.111L27.8223 304.261L27.0853 312.689L24.2366 315.512L8.13408 314.104L5.82477 310.758L6.32966 304.984L9.18464 302.089ZM24.9199 288.816L24.1669 293.945L29.0466 294.661L29.7996 289.532L24.9199 288.816ZM19.2442 288.565L18.6638 292.519L13.8197 291.807L9.38912 285.553L4.6519 284.858L3.81926 285.573L2.97213 291.343L3.56422 292.267L6.73423 292.732L6.15379 296.686L3.80299 296.34L0.636324 292.382L1.88088 283.905L6.05156 281.025L11.5724 281.835L15.8605 288.068L19.2442 288.565ZM32.6292 253.239L37.3905 254.526L36.0386 259.53L31.2772 258.244L32.6292 253.239ZM38.0642 235.784L42.7411 237.35L41.0953 242.266L36.4184 240.7L38.0642 235.784ZM44.5226 218.681L49.0986 220.521L47.1649 225.331L42.5889 223.491L44.5226 218.681ZM60.4093 185.769L64.7367 188.135L62.2499 192.684L57.9224 190.318L60.4093 185.769ZM69.7776 170.072L73.9585 172.688L71.2086 177.083L67.0277 174.466L69.7776 170.072ZM80.0601 154.954L84.0783 157.813L81.0723 162.037L77.0541 159.177L80.0601 154.954ZM103.191 126.664L106.848 129.974L103.369 133.817L99.7125 130.508L103.191 126.664ZM115.956 113.581L119.413 117.099L115.716 120.733L112.259 117.215L115.956 113.581ZM129.463 101.267L132.709 104.98L128.806 108.392L125.56 104.678L129.463 101.267Z" fill="white"/>
</svg>
